<svg width="183" height="193" viewBox="0 0 183 193" fill="none" xmlns="http://www.w3.org/2000/svg">
<g filter="url(#filter0_dd_742_4)">
<path d="M91.6988 187.07C37.0037 187.07 4.39697 147.626 4.39697 95.035C4.39697 42.4436 37.0037 3 91.6988 3C146.394 3 179.001 42.4436 179.001 95.035C179.001 147.626 146.394 187.07 91.6988 187.07ZM91.6988 163.404C126.672 163.404 152.705 145.26 152.705 95.035C152.705 44.8102 126.672 26.6662 91.6988 26.6662C56.4625 26.6662 30.6927 44.8102 30.6927 95.035C30.6927 145.26 56.4625 163.404 91.6988 163.404Z" fill="url(#paint0_linear_742_4)"/>
</g>
<defs>
<filter id="filter0_dd_742_4" x="0.396973" y="0" width="182.604" height="192.07" filterUnits="userSpaceOnUse" color-interpolation-filters="sRGB">
<feFlood flood-opacity="0" result="BackgroundImageFix"/>
<feColorMatrix in="SourceAlpha" type="matrix" values="0 0 0 0 0 0 0 0 0 0 0 0 0 0 0 0 0 0 127 0" result="hardAlpha"/>
<feOffset dy="1"/>
<feGaussianBlur stdDeviation="2"/>
<feComposite in2="hardAlpha" operator="out"/>
<feColorMatrix type="matrix" values="0 0 0 0 0.0470588 0 0 0 0 0.0470588 0 0 0 0 0.0509804 0 0 0 0.05 0"/>
<feBlend mode="normal" in2="BackgroundImageFix" result="effect1_dropShadow_742_4"/>
<feColorMatrix in="SourceAlpha" type="matrix" values="0 0 0 0 0 0 0 0 0 0 0 0 0 0 0 0 0 0 127 0" result="hardAlpha"/>
<feOffset dy="1"/>
<feGaussianBlur stdDeviation="2"/>
<feComposite in2="hardAlpha" operator="out"/>
<feColorMatrix type="matrix" values="0 0 0 0 0.0470588 0 0 0 0 0.0470588 0 0 0 0 0.0509804 0 0 0 0.1 0"/>
<feBlend mode="normal" in2="effect1_dropShadow_742_4" result="effect2_dropShadow_742_4"/>
<feBlend mode="normal" in="SourceGraphic" in2="effect2_dropShadow_742_4" result="shape"/>
</filter>
<linearGradient id="paint0_linear_742_4" x1="-464.406" y1="121.519" x2="1153.72" y2="121.519" gradientUnits="userSpaceOnUse">
<stop offset="0.205" stop-color="white"/>
<stop offset="1" stop-color="#999999"/>
</linearGradient>
</defs>
</svg>
