<svg width="96" height="111" viewBox="0 0 96 111" fill="none" xmlns="http://www.w3.org/2000/svg">
<path d="M59.5773 110.335H0.671021V36.5146H47.0954L59.5773 50.5324V110.335Z" fill="#FCFDFD"/>
<path d="M60.2484 111H0V35.8516H47.3975L60.2484 50.281V111ZM1.34213 109.672H58.9063V50.7857L46.7935 37.1796H1.34213V109.672Z" fill="#090812"/>
<path d="M59.5773 50.5324H47.0955V36.5146L59.5773 50.5324Z" fill="#FCFDFD"/>
<path d="M59.5774 51.1968H47.0955C46.7264 51.1968 46.4244 50.898 46.4244 50.5328V36.515C46.4244 36.2361 46.5989 35.9904 46.8606 35.8908C47.1223 35.7978 47.4176 35.8642 47.5988 36.0701L60.0807 50.0878C60.2551 50.2804 60.2954 50.5593 60.188 50.7984C60.0807 51.0374 59.8391 51.1901 59.5774 51.1901V51.1968ZM47.7666 49.8687H58.0876L47.7666 38.2747V49.8687Z" fill="#090812"/>
<path d="M48.9946 53.7598H11.2471V55.0878H48.9946V53.7598Z" fill="#090812"/>
<path d="M48.9946 58.4414H11.2471V59.7695H48.9946V58.4414Z" fill="#090812"/>
<path d="M48.9946 63.123H11.2471V64.4511H48.9946V63.123Z" fill="#090812"/>
<path d="M48.9946 67.8037H11.2471V69.1318H48.9946V67.8037Z" fill="#090812"/>
<path d="M48.9946 72.4854H11.2471V73.8134H48.9946V72.4854Z" fill="#090812"/>
<path d="M48.9946 77.167H11.2471V78.4951H48.9946V77.167Z" fill="#090812"/>
<path d="M48.9946 81.8486H11.2471V83.1767H48.9946V81.8486Z" fill="#090812"/>
<path d="M48.9946 86.5303H11.2471V87.8583H48.9946V86.5303Z" fill="#090812"/>
<path d="M48.9946 91.2109H11.2471V92.539H48.9946V91.2109Z" fill="#090812"/>
<path d="M48.9946 95.8926H11.2471V97.2206H48.9946V95.8926Z" fill="#090812"/>
<path d="M48.9946 100.574H11.2471V101.902H48.9946V100.574Z" fill="#090812"/>
<path d="M77.4075 92.6869H18.5079V18.8662H64.9324L77.4075 32.884V92.6869Z" fill="#FCFDFD"/>
<path d="M78.0786 93.3509H17.8369V18.2021H65.2344L78.0853 32.6316V93.3509H78.0786ZM19.179 92.0229H76.7432V33.1363L64.6304 19.5302H19.179V92.0229Z" fill="#090812"/>
<path d="M77.4075 32.883H64.9324V18.8652L77.4075 32.883Z" fill="#FCFDFD"/>
<path d="M77.4076 33.5474H64.9257C64.5566 33.5474 64.2546 33.2486 64.2546 32.8833V18.8656C64.2546 18.5867 64.4291 18.341 64.6908 18.2414C64.9525 18.1418 65.2478 18.2148 65.429 18.4207L77.9109 32.4384C78.0853 32.6376 78.1256 32.9099 78.0182 33.1489C77.9109 33.388 77.6693 33.5407 77.4076 33.5407V33.5474ZM65.6035 32.2193H75.9245L65.6035 20.6253V32.2193Z" fill="#090812"/>
<path d="M66.8382 36.1104H29.084V37.4384H66.8382V36.1104Z" fill="#090812"/>
<path d="M66.8382 40.792H29.084V42.1201H66.8382V40.792Z" fill="#090812"/>
<path d="M66.8382 45.4736H29.084V46.8017H66.8382V45.4736Z" fill="#090812"/>
<path d="M66.8382 50.1543H29.084V51.4824H66.8382V50.1543Z" fill="#090812"/>
<path d="M66.8382 54.8359H29.084V56.164H66.8382V54.8359Z" fill="#090812"/>
<path d="M66.8382 59.5176H29.084V60.8456H66.8382V59.5176Z" fill="#090812"/>
<path d="M66.8382 64.1992H29.084V65.5273H66.8382V64.1992Z" fill="#090812"/>
<path d="M66.8382 68.8809H29.084V70.2089H66.8382V68.8809Z" fill="#090812"/>
<path d="M66.8382 73.5615H29.084V74.8896H66.8382V73.5615Z" fill="#090812"/>
<path d="M66.8382 78.2432H29.084V79.5712H66.8382V78.2432Z" fill="#090812"/>
<path d="M66.8382 82.9248H29.084V84.2529H66.8382V82.9248Z" fill="#090812"/>
<path d="M95.2445 75.0424H36.3383V1.22168H82.7627L95.2445 15.2394V75.0424Z" fill="#FCFDFD"/>
<path d="M95.9156 75.7074H35.6672V0.558594H83.0647L95.9156 14.9881V75.7074ZM37.0094 74.3793H94.5735V15.4861L82.4607 1.88666H37.0094V74.3793Z" fill="#090812"/>
<path d="M95.2445 15.2394H82.7627V1.22168L95.2445 15.2394Z" fill="#FCFDFD"/>
<path d="M95.2446 15.9038H82.7627C82.3937 15.9038 82.0917 15.605 82.0917 15.2398V1.22201C82.0917 0.943119 82.2662 0.697426 82.5279 0.597821C82.7896 0.504856 83.0849 0.57126 83.266 0.77711L95.7479 14.7949C95.9224 14.9874 95.9626 15.2663 95.8553 15.5054C95.7479 15.7444 95.5063 15.8972 95.2446 15.8972V15.9038ZM83.4338 14.5757H93.7548L83.4338 2.9817V14.5757Z" fill="#090812"/>
<path d="M84.6685 18.46H46.9143V19.788H84.6685V18.46Z" fill="#090812"/>
<path d="M84.6685 23.1416H46.9143V24.4697H84.6685V23.1416Z" fill="#090812"/>
<path d="M84.6685 27.8232H46.9143V29.1513H84.6685V27.8232Z" fill="#090812"/>
<path d="M84.6685 32.5039H46.9143V33.832H84.6685V32.5039Z" fill="#090812"/>
<path d="M84.6685 37.1855H46.9143V38.5136H84.6685V37.1855Z" fill="#090812"/>
<path d="M84.6685 41.8672H46.9143V43.1953H84.6685V41.8672Z" fill="#090812"/>
<path d="M84.6685 46.5488H46.9143V47.8769H84.6685V46.5488Z" fill="#090812"/>
<path d="M84.6685 51.2305H46.9143V52.5585H84.6685V51.2305Z" fill="#090812"/>
<path d="M84.6685 55.9111H46.9143V57.2392H84.6685V55.9111Z" fill="#090812"/>
<path d="M84.6685 60.5928H46.9143V61.9208H84.6685V60.5928Z" fill="#090812"/>
<path d="M84.6685 65.2744H46.9143V66.6025H84.6685V65.2744Z" fill="#090812"/>
</svg>
