<svg width="270" height="214" viewBox="0 0 270 214" fill="none" xmlns="http://www.w3.org/2000/svg">
<path d="M39.7401 20.857C39.7401 15.8827 47.1717 7.02693 52.345 7.02693C55.1828 7.02693 55.9337 8.03612 55.9337 10.568C55.9337 12.676 54.8458 18.5759 52.5933 22.7082C58.6888 12.0848 64.4473 8.28692 68.1188 8.28692C71.7903 8.28692 73.8773 10.8189 73.8773 14.1032C73.8773 16.3783 73.2092 19.3283 71.4533 23.377C69.9516 27.0853 67.2792 33.0747 67.2792 35.1827C67.2792 36.1083 67.699 36.4487 68.4499 36.4487C70.1171 36.4487 75.379 32.1492 80.5581 24.6429C82.1426 24.6429 83.8158 25.7417 83.8158 27.4257C83.8158 32.7403 69.7092 46.9884 62.0233 46.9884C57.0984 46.9884 55.4252 44.7969 55.4252 40.157C55.4252 34.5915 59.682 26.0761 59.682 24.219C59.682 23.5442 59.3509 23.2098 58.6829 23.2098C57.932 23.2098 55.1769 24.4757 51.9193 29.026C50.7486 35.5171 50.252 39.315 49.9978 45.0477C49.1642 45.8896 48.5789 46.1464 46.6574 46.1464C41.9808 46.1464 38.5576 41.6797 38.4749 36.6159C38.4749 33.4091 39.1429 29.9516 40.5619 26.0761C39.8938 24.4757 39.7283 22.535 39.7283 20.845L39.7401 20.857Z" fill="url(#paint0_linear_21_818)" stroke="#231F20" stroke-width="1.31441"/>
<path d="M129.427 33.4963C128.491 37.3176 126.916 40.1999 124.702 42.1492C122.489 44.0925 119.786 45.0671 116.606 45.0671C114.357 45.0671 112.352 44.5442 110.598 43.5042C108.838 42.4642 107.233 40.7883 105.789 38.4824C102.138 42.8683 98.1107 45.0612 93.7017 45.0612C90.7425 45.0612 88.356 44.1222 86.5363 42.2383C84.7225 40.3544 83.8157 37.9416 83.8157 34.9939C83.8157 32.9971 84.2691 31.1905 85.1879 29.5621C86.1007 27.9338 87.3298 26.6858 88.881 25.8241C90.4322 24.9623 93.0275 24.2373 96.6848 23.6609C99.4233 23.2151 101.732 22.6743 103.6 22.0325L103.641 20.6656C103.641 17.7952 103.146 15.8162 102.156 14.7287C101.165 13.6411 99.5128 13.0944 97.1979 13.0944C94.883 13.0944 92.9977 13.5639 91.876 14.4969C90.7544 15.43 89.937 17.2366 89.4239 19.9109L84.651 19.2156C85.4087 15.2695 86.8048 12.4466 88.8392 10.741C90.8737 9.0354 93.7077 8.17963 97.3351 8.17963C100.026 8.17963 102.162 8.5778 103.743 9.3682C105.324 10.1586 106.499 11.3353 107.281 12.8983C109.685 9.74855 112.788 8.17963 116.594 8.17963C119.088 8.17963 121.266 8.83334 123.133 10.1408C125.001 11.4482 126.534 13.5342 127.739 16.3927C128.938 19.2512 129.541 22.5079 129.541 26.1628L129.505 28.1596H108.48C108.504 31.4401 108.832 33.7994 109.464 35.2376C110.097 36.6758 111.105 37.8584 112.471 38.7796C113.844 39.7007 115.317 40.1583 116.904 40.1583C118.688 40.1583 120.245 39.5165 121.57 38.2388C122.894 36.961 123.807 35.1187 124.297 32.7119L129.433 33.5082L129.427 33.4963ZM103.665 26.5491C102.216 27.3276 99.2861 28.1358 94.8711 28.9738C92.8664 29.3482 91.4704 29.9068 90.6888 30.6378C89.5731 31.7016 89.0182 33.0744 89.0182 34.7622C89.0182 36.4499 89.5254 37.7693 90.5336 38.8033C91.5479 39.8315 92.9201 40.3485 94.6563 40.3485C96.7684 40.3485 98.6179 39.7185 100.193 38.4527C101.774 37.1869 102.794 35.5704 103.266 33.5974C103.54 32.492 103.677 30.1386 103.665 26.5491ZM108.474 23.227H124.493C124.225 19.6672 123.378 17.088 121.952 15.4894C120.526 13.8907 118.754 13.0885 116.636 13.0885C114.363 13.0885 112.477 13.9561 110.986 15.6914C109.494 17.4268 108.659 19.9406 108.48 23.227H108.474Z" fill="url(#paint1_linear_21_818)" stroke="#231F20" stroke-width="1.31441"/>
<path d="M132.23 45.8356V7.41112H139.914V30.4682H147.598V38.1519H139.914V45.8356H132.23ZM155.288 22.7785V30.4622H147.604V22.7785H155.288ZM155.288 15.0948H162.971V22.7785H155.288V15.0948ZM162.971 7.41112H170.655V15.0948H162.971V7.41112Z" fill="url(#paint2_linear_21_818)"/>
<path d="M155.288 22.7785V30.4622H147.604V22.7785H155.288ZM155.288 22.7785H162.971V15.0948M155.288 22.7785V15.0948H162.971M162.971 15.0948H170.655V7.41112H162.971V15.0948ZM132.23 45.8356V7.41112H139.914V30.4682H147.598V38.1519H139.914V45.8356H132.23Z" stroke="#231F20" stroke-width="1.31441"/>
<path d="M169.355 30.1612C169.355 26.9692 174.12 21.2986 177.442 21.2986C179.904 21.2986 180.122 22.6479 180.122 24.758C180.122 26.1608 179.209 28.4315 178.249 30.7021C176.747 34.435 176.052 36.1647 176.052 37.407C176.052 38.0014 176.317 38.2154 176.8 38.2154C177.548 38.2154 179.963 36.4857 183.55 31.35C184.569 31.35 185.641 32.2119 185.641 33.2937C185.641 36.6997 177.124 45.8357 172.194 45.8357C169.032 45.8357 167.965 44.4329 167.965 41.4549C167.965 39.0773 168.554 36.8601 169.891 33.5077C169.461 32.4794 169.355 31.2371 169.355 30.1552V30.1612ZM179.427 7.02693C181.571 7.02693 183.98 9.40455 183.98 11.0808C183.98 12.3766 182.961 14.4867 180.393 17.6787C178.302 17.6787 176.806 16.1094 176.806 12.9769C176.806 8.59616 177.719 7.03288 179.433 7.03288L179.427 7.02693Z" fill="url(#paint3_linear_21_818)" stroke="#231F20" stroke-width="1.31441"/>
<path d="M209.204 44.6829H195.566V40.12H191.02V30.9942H195.566V35.5571H200.112V40.12H209.204V35.5571H204.658V30.9942H200.112V26.4313H195.566V21.8684H191.02V12.7425H195.566V8.17963H213.755V12.7425H218.301V17.3054H209.209V12.7425H200.118V17.3054H204.664V21.8684H209.209V26.4313H213.755V30.9942H218.301V40.12H213.755V44.6829H209.209H209.204Z" fill="url(#paint4_linear_21_818)" stroke="#231F20" stroke-width="1.31441"/>
<path d="M231.366 1.64746C230.189 6.01205 227.984 11.5697 226.548 13.9618L223.681 14.3275C224.81 11.2639 226.14 5.85617 226.702 2.1151L231.366 1.64746Z" fill="url(#paint5_linear_21_818)" stroke="#231F20" stroke-width="1.31441"/>
<path d="M37.66 72.272C36.2348 72.272 35.6612 71.6053 35.6612 70.85C35.6612 67.7169 34.4253 66.2949 32.1427 66.2949C28.0505 66.2949 25.0997 71.0389 23.0063 77.4998H32.9942C35.5607 77.4998 34.4194 86.2324 30.617 86.2324C30.9008 86.2324 26.241 85.7604 20.8183 85.3769C19.2985 92.4043 18.3464 99.8093 17.7728 104.836C16.7261 114.141 17.3943 124.868 8.06869 124.868C-1.25694 124.868 0.74183 116.419 5.30708 98.8593C6.63762 93.9207 8.06869 89.1767 9.58847 84.716H8.25793C-0.588714 84.716 3.59806 77.4998 5.88069 77.4998H12.2555C18.3464 62.4066 26.0517 52.246 36.5187 52.246C51.6455 52.246 45.0815 72.278 37.66 72.278V72.272Z" fill="url(#paint6_linear_21_818)" stroke="#231F20" stroke-width="1.31441"/>
<path d="M30.6775 110.574V95.8195H38.0538V110.574H30.6775ZM38.0538 88.442H45.4301V95.8195H38.0538V88.442ZM38.0538 117.952V110.574H52.8064V117.952H38.0538ZM67.565 95.8195H60.1887V88.442H45.4361V81.0645H67.565V95.8195ZM60.1828 110.574H52.8064V95.8195H60.1828V110.574ZM67.565 110.574V117.952H60.1887V110.574H67.565Z" fill="url(#paint7_linear_21_818)"/>
<path d="M38.0538 95.8195H30.6775V110.574H38.0538M38.0538 95.8195V110.574M38.0538 95.8195H45.4301V88.442H38.0538V95.8195ZM38.0538 110.574V117.952H52.8064V110.574M38.0538 110.574H52.8064M52.8064 110.574H60.1828V95.8195H52.8064V110.574ZM67.565 95.8195H60.1887V88.442H45.4361V81.0645H67.565V95.8195ZM67.565 110.574V117.952H60.1887V110.574H67.565Z" stroke="#231F20" stroke-width="1.31441"/>
<path d="M85.4889 117.952L73.713 80.2959H79.2598L85.9219 102.85C86.6813 105.402 87.3457 107.936 87.9152 110.44C88.3661 108.456 89.0068 106.065 89.8374 103.277L96.7427 80.2959H102.147L90.3772 117.952H85.4948H85.4889Z" fill="url(#paint8_linear_21_818)" stroke="#231F20" stroke-width="1.31441"/>
<path d="M124.323 117.183H114.772V112.428H109.997V107.673H105.221V88.6533H109.997V83.8982H114.772V102.918H119.548V107.673H124.323V112.428H129.099V117.183H124.323ZM129.099 112.428V93.4083H124.323V88.6533H119.548V83.8982H114.772V79.1432H129.099V83.8982H133.875V88.6533H138.65V107.673H133.875V112.428H129.099Z" fill="url(#paint9_linear_21_818)"/>
<path d="M114.772 83.8982H109.997V88.6533H105.221V107.673H109.997V112.428H114.772V117.183H124.323H129.099V112.428M114.772 83.8982V102.918H119.548V107.673H124.323V112.428H129.099M114.772 83.8982H119.548V88.6533H124.323V93.4083H129.099V112.428M114.772 83.8982V79.1432H129.099V83.8982H133.875V88.6533H138.65V107.673H133.875V112.428H129.099" stroke="#231F20" stroke-width="1.31441"/>
<path d="M152.593 117.946H147.543V92.9798H142.493V87.9853H147.543V82.9909H152.593V77.9964H157.643V87.9853H162.693V92.9798H157.643V107.963H162.693V112.958H157.643V117.952H152.593V117.946ZM172.793 92.9738H167.743V87.9794H162.693V82.985H167.743V77.9905H172.793V82.985H177.843V92.9738H172.793Z" fill="url(#paint10_linear_21_818)" stroke="#231F20" stroke-width="1.31441"/>
<path d="M179.722 96.6858C179.722 92.3592 186.146 84.6628 190.62 84.6628C193.939 84.6628 194.229 86.4981 194.229 89.3565C194.229 91.264 193.003 94.339 191.705 97.42C189.684 102.481 188.742 104.822 188.742 106.512C188.742 107.319 189.103 107.614 189.755 107.614C190.762 107.614 194.016 105.267 198.852 98.3046C200.221 98.3046 201.667 99.478 201.667 100.946C201.667 105.562 190.188 117.952 183.544 117.952C179.283 117.952 177.843 116.044 177.843 112.013C177.843 108.787 178.637 105.784 180.439 101.235C179.864 99.845 179.716 98.1541 179.716 96.6918L179.722 96.6858ZM193.299 65.3103C196.185 65.3103 199.432 68.5357 199.432 70.8103C199.432 72.5675 198.058 75.4258 194.597 79.7524C191.782 79.7524 189.761 77.6282 189.761 73.3738C189.761 67.4345 190.988 65.3103 193.299 65.3103Z" fill="url(#paint11_linear_21_818)" stroke="#231F20" stroke-width="1.31441"/>
<path d="M227.508 72.611V85.6762H233.943V92.2058H221.068V98.7354H214.633V92.2058H208.198V85.6762H221.074V72.611H227.508ZM208.198 111.801V98.7354H214.633V111.801H208.198ZM214.633 118.336V111.807H221.068V118.336H214.633Z" fill="url(#paint12_linear_21_818)"/>
<path d="M214.633 98.7354H221.068V92.2058H233.943V85.6762H227.508V72.611H221.074V85.6762H208.198V92.2058H214.633V98.7354ZM214.633 98.7354H208.198V111.801H214.633V98.7354ZM214.633 118.336V111.807H221.068V118.336H214.633Z" stroke="#231F20" stroke-width="1.31441"/>
<path d="M252.816 82.9856C259.369 82.9856 262.26 87.2291 262.26 91.8945C262.26 97.0533 257.822 102.854 250.914 102.854C248.941 102.854 247.04 102.64 245.416 101.725C244.925 101.439 244.22 101.653 244.22 102.575C244.22 105.047 247.531 106.319 251.548 106.319C256.341 106.319 262.053 103.846 265.222 98.967C266.348 97.2672 269.168 99.389 268.392 100.732C262.189 112.256 254.718 118.336 246.542 118.336C226.736 118.336 232.59 82.9856 252.816 82.9856ZM253.45 93.5943C253.45 92.0372 252.396 90.694 250.209 90.694C247.46 90.694 245.772 92.7444 245.772 94.6522C245.772 96.2093 246.826 97.5525 249.084 97.5525C251.833 97.5525 253.456 95.3595 253.456 93.5943H253.45Z" fill="url(#paint13_linear_21_818)" stroke="#231F20" stroke-width="1.31441"/>
<path d="M36.506 184.054C36.506 177.515 40.7512 171.053 47.1579 171.053C47.7967 171.053 48.358 171.451 48.358 172.01C48.358 175.517 51.4031 177.913 55.9648 177.913C60.9325 177.913 67.8228 174.007 71.6679 164.276C73.0293 160.685 74.5518 156.619 75.9132 153.188C76.9521 150.394 78.7194 149.36 81.1197 149.36C84.6424 149.36 85.6873 151.036 84.8037 153.664C82.081 162.118 79.6747 169.293 76.7132 176.314C70.623 190.831 62.055 197.448 52.042 197.448C40.9064 197.448 36.5 190.671 36.5 184.048L36.506 184.054ZM44.4352 155.739C44.4352 144.414 55.0871 132.37 77.997 132.37C86.565 132.37 91.0551 133.006 96.578 133.006C102.101 133.006 105.146 132.126 107.152 132.126C109.553 132.126 110.275 133.244 110.275 135.396C110.275 141.537 105.791 147.196 97.1393 147.196C89.5325 147.196 86.9651 143.047 77.0357 143.047C67.1063 143.047 61.8937 147.594 61.8937 152.695C61.8937 154.847 63.1775 156.446 64.9389 156.446C66.3778 159.954 62.2162 166.814 54.4482 166.814C47.8803 166.814 44.4352 161.553 44.4352 155.727V155.739Z" fill="url(#paint14_linear_21_818)" stroke="#231F20" stroke-width="1.31441"/>
<path d="M115.32 192.453H111.692V170.654H104.429V174.284H100.801V192.447H93.5384V163.382H89.91V159.751H93.5384V156.121H97.1667V152.491H100.795V170.654H104.423V167.024H108.052V163.393H115.314V167.024H118.943V185.186H122.571V188.816H118.943V192.447H115.314L115.32 192.453Z" fill="url(#paint15_linear_21_818)" stroke="#231F20" stroke-width="1.31441"/>
<path d="M127.239 174.451C127.239 170.789 132.735 164.272 136.559 164.272C139.399 164.272 139.648 165.822 139.648 168.243C139.648 169.859 138.599 172.465 137.49 175.071C135.759 179.352 134.959 181.344 134.959 182.769C134.959 183.454 135.267 183.699 135.824 183.699C136.69 183.699 139.464 181.713 143.603 175.816C144.776 175.816 146.01 176.812 146.01 178.052C146.01 181.964 136.198 192.452 130.518 192.452C126.878 192.452 125.645 190.836 125.645 187.426C125.645 184.695 126.321 182.149 127.868 178.303C127.376 177.122 127.251 175.697 127.251 174.451H127.239ZM138.842 147.88C141.308 147.88 144.089 150.611 144.089 152.537C144.089 154.028 142.915 156.449 139.951 160.11C137.544 160.11 135.812 158.309 135.812 154.707C135.812 149.681 136.862 147.88 138.836 147.88H138.842Z" fill="url(#paint16_linear_21_818)" stroke="#231F20" stroke-width="1.31441"/>
<path d="M153.924 168.474H147.931V162.481H153.924V168.474ZM147.931 192.452V180.466H153.924V192.452H147.931ZM153.924 180.46V168.474H159.917V180.46H153.924ZM171.903 162.481V168.474H159.917V162.481H171.903ZM171.903 186.459H165.91V174.473H171.903V186.459ZM177.902 174.467H171.909V168.474H177.902V174.467ZM177.902 186.459V192.452H171.909V186.459H177.902Z" fill="url(#paint17_linear_21_818)"/>
<path d="M153.924 168.474H147.931V162.481H153.924V168.474ZM153.924 168.474V180.46H159.917V168.474M153.924 168.474H159.917M159.917 168.474H171.903V162.481H159.917V168.474ZM147.931 192.452V180.466H153.924V192.452H147.931ZM171.903 186.459H165.91V174.473H171.903V186.459ZM177.902 174.467H171.909V168.474H177.902V174.467ZM177.902 186.459V192.452H171.909V186.459H177.902Z" stroke="#231F20" stroke-width="1.31441"/>
<path d="M211.716 183.424L198.721 194.064C195.07 200.353 191.742 205.05 188.737 208.156C185.738 211.262 183.506 212.817 182.045 212.817C181.261 212.817 180.872 212.335 180.872 211.375C180.872 209.503 181.824 207.113 183.727 204.204C184.481 203.059 185.349 201.945 186.331 200.854C187.312 199.763 188.234 198.821 189.108 198.028C189.982 197.236 191.137 196.246 192.574 195.066C194.01 193.886 194.986 193.069 195.513 192.628C198.122 187.329 200.002 183.269 201.151 180.462C198.697 183.061 196.56 185.195 194.729 186.858C192.903 188.521 191.227 189.802 189.701 190.697C188.174 191.591 186.798 192.044 185.571 192.044C184.242 192.044 183.015 190.983 181.889 188.867C180.764 186.75 180.208 184.575 180.208 182.339C180.208 181.302 180.447 180.211 180.932 179.067C181.417 177.922 182.171 176.7 183.2 175.401C184.23 174.101 185.541 172.772 187.133 171.407C188.725 170.042 190.592 168.713 192.729 167.413C196.776 164.892 199.918 163.634 202.163 163.634C203.833 163.634 204.671 164.242 204.671 165.464C204.671 167.151 202.857 168.802 199.23 170.418C197.009 171.377 194.812 172.653 192.634 174.238C190.455 175.824 188.695 177.505 187.348 179.287C186.002 181.07 185.331 182.673 185.331 184.104C185.331 184.807 185.499 185.367 185.84 185.779C186.181 186.196 186.624 186.405 187.169 186.405C188.085 186.405 189.126 185.987 190.299 185.159C191.472 184.324 193.208 182.858 195.507 180.754C196.548 179.794 197.943 178.238 199.673 176.092C201.408 173.946 202.845 172.313 203.976 171.181C205.114 170.048 206.137 169.488 207.047 169.488C207.568 169.488 207.993 169.649 208.322 169.976C208.651 170.304 208.813 170.775 208.813 171.401C208.813 172.599 208.334 174.334 207.382 176.605C206.43 178.882 204.712 182.602 202.234 187.776L211.71 180.915V183.448L211.716 183.424Z" fill="url(#paint18_linear_21_818)" stroke="#231F20" stroke-width="1.31441"/>
<path d="M214.021 183.211L218.005 182.456C218.238 184.483 218.882 185.986 219.925 186.973C220.969 187.959 222.358 188.453 224.088 188.453C225.817 188.453 227.153 188.025 228.101 187.169C229.05 186.313 229.521 185.232 229.521 183.918C229.521 182.783 229.115 181.903 228.304 181.273C227.744 180.84 226.39 180.299 224.243 179.651C221.136 178.7 219.061 177.886 218.011 177.22C216.961 176.555 216.15 175.663 215.572 174.546C214.993 173.429 214.707 172.163 214.707 170.742C214.707 168.294 215.494 166.309 217.063 164.775C218.631 163.248 220.808 162.481 223.593 162.481C225.346 162.481 226.885 162.796 228.215 163.426C229.545 164.056 230.558 164.9 231.262 165.964C231.966 167.028 232.455 168.549 232.723 170.528L228.823 171.176C228.459 168.044 226.754 166.481 223.7 166.481C221.965 166.481 220.677 166.826 219.824 167.515C218.977 168.205 218.554 169.09 218.554 170.166C218.554 171.241 218.959 172.056 219.776 172.668C220.265 173.024 221.714 173.601 224.118 174.385C227.427 175.431 229.568 176.263 230.54 176.887C231.513 177.511 232.27 178.355 232.807 179.431C233.349 180.507 233.618 181.779 233.618 183.258C233.618 185.998 232.747 188.215 231.006 189.909C229.264 191.603 226.885 192.452 223.867 192.452C218.214 192.452 214.94 189.374 214.033 183.223L214.021 183.211Z" fill="url(#paint19_linear_21_818)" stroke="#231F20" stroke-width="1.31441"/>
<defs>
<linearGradient id="paint0_linear_21_818" x1="61.1601" y1="47.0003" x2="61.1601" y2="7.0329" gradientUnits="userSpaceOnUse">
<stop stop-color="#FFFEF9"/>
<stop offset="0.67" stop-color="#F9F397"/>
</linearGradient>
<linearGradient id="paint1_linear_21_818" x1="106.672" y1="45.0671" x2="106.672" y2="8.16774" gradientUnits="userSpaceOnUse">
<stop stop-color="#FFFEF9"/>
<stop offset="0.67" stop-color="#F9F397"/>
</linearGradient>
<linearGradient id="paint2_linear_21_818" x1="151.446" y1="45.8356" x2="151.446" y2="7.41112" gradientUnits="userSpaceOnUse">
<stop stop-color="#FFFEF9"/>
<stop offset="0.67" stop-color="#F9F397"/>
</linearGradient>
<linearGradient id="paint3_linear_21_818" x1="176.8" y1="45.8357" x2="176.8" y2="1.07693" gradientUnits="userSpaceOnUse">
<stop stop-color="#FFFEF9"/>
<stop offset="0.67" stop-color="#F9F397"/>
</linearGradient>
<linearGradient id="paint4_linear_21_818" x1="204.658" y1="44.6829" x2="204.658" y2="8.17365" gradientUnits="userSpaceOnUse">
<stop stop-color="#FFFEF9"/>
<stop offset="0.67" stop-color="#F9F397"/>
</linearGradient>
<linearGradient id="paint5_linear_21_818" x1="227.523" y1="14.3215" x2="227.523" y2="1.64746" gradientUnits="userSpaceOnUse">
<stop stop-color="#FFFEF9"/>
<stop offset="0.67" stop-color="#F9F397"/>
</linearGradient>
<linearGradient id="paint6_linear_21_818" x1="23.6568" y1="124.862" x2="23.6568" y2="52.2401" gradientUnits="userSpaceOnUse">
<stop stop-color="#FFFEF9"/>
<stop offset="0.67" stop-color="#F9F397"/>
</linearGradient>
<linearGradient id="paint7_linear_21_818" x1="49.1212" y1="117.952" x2="49.1212" y2="81.0645" gradientUnits="userSpaceOnUse">
<stop stop-color="#FFFEF9"/>
<stop offset="0.67" stop-color="#F9F397"/>
</linearGradient>
<linearGradient id="paint8_linear_21_818" x1="87.9271" y1="117.952" x2="87.9271" y2="80.2959" gradientUnits="userSpaceOnUse">
<stop stop-color="#FFFEF9"/>
<stop offset="0.67" stop-color="#F9F397"/>
</linearGradient>
<linearGradient id="paint9_linear_21_818" x1="121.936" y1="117.183" x2="121.936" y2="79.1491" gradientUnits="userSpaceOnUse">
<stop stop-color="#FFFEF9"/>
<stop offset="0.67" stop-color="#F9F397"/>
</linearGradient>
<linearGradient id="paint10_linear_21_818" x1="160.168" y1="117.946" x2="160.168" y2="77.9905" gradientUnits="userSpaceOnUse">
<stop stop-color="#FFFEF9"/>
<stop offset="0.67" stop-color="#F9F397"/>
</linearGradient>
<linearGradient id="paint11_linear_21_818" x1="189.761" y1="117.946" x2="189.761" y2="65.3103" gradientUnits="userSpaceOnUse">
<stop stop-color="#FFFEF9"/>
<stop offset="0.67" stop-color="#F9F397"/>
</linearGradient>
<linearGradient id="paint12_linear_21_818" x1="221.068" y1="118.336" x2="221.068" y2="72.611" gradientUnits="userSpaceOnUse">
<stop stop-color="#FFFEF9"/>
<stop offset="0.67" stop-color="#F9F397"/>
</linearGradient>
<linearGradient id="paint13_linear_21_818" x1="251.43" y1="118.336" x2="251.43" y2="82.9856" gradientUnits="userSpaceOnUse">
<stop stop-color="#FFFEF9"/>
<stop offset="0.67" stop-color="#F9F397"/>
</linearGradient>
<linearGradient id="paint14_linear_21_818" x1="73.3935" y1="197.454" x2="73.3935" y2="132.132" gradientUnits="userSpaceOnUse">
<stop stop-color="#FFFEF9"/>
<stop offset="0.67" stop-color="#F9F397"/>
</linearGradient>
<linearGradient id="paint15_linear_21_818" x1="106.246" y1="192.453" x2="106.246" y2="152.491" gradientUnits="userSpaceOnUse">
<stop stop-color="#FFFEF9"/>
<stop offset="0.67" stop-color="#F9F397"/>
</linearGradient>
<linearGradient id="paint16_linear_21_818" x1="135.818" y1="192.458" x2="135.818" y2="147.88" gradientUnits="userSpaceOnUse">
<stop stop-color="#FFFEF9"/>
<stop offset="0.67" stop-color="#F9F397"/>
</linearGradient>
<linearGradient id="paint17_linear_21_818" x1="162.914" y1="192.452" x2="162.914" y2="162.481" gradientUnits="userSpaceOnUse">
<stop stop-color="#FFFEF9"/>
<stop offset="0.67" stop-color="#F9F397"/>
</linearGradient>
<linearGradient id="paint18_linear_21_818" x1="195.962" y1="212.817" x2="195.962" y2="163.622" gradientUnits="userSpaceOnUse">
<stop stop-color="#FFFEF9"/>
<stop offset="0.67" stop-color="#F9F397"/>
</linearGradient>
<linearGradient id="paint19_linear_21_818" x1="223.814" y1="192.446" x2="223.814" y2="162.481" gradientUnits="userSpaceOnUse">
<stop stop-color="#FFFEF9"/>
<stop offset="0.67" stop-color="#F9F397"/>
</linearGradient>
</defs>
</svg>
